<svg width="32" height="33" viewBox="0 0 32 33" fill="none" xmlns="http://www.w3.org/2000/svg">
<path fill-rule="evenodd" clip-rule="evenodd" d="M24.662 22.4306L31.7718 29.5503C32.0893 29.9035 32.0737 30.4443 31.7363 30.7785L30.492 32.0244C30.3252 32.1929 30.098 32.2877 29.861 32.2877C29.6241 32.2877 29.3969 32.1929 29.2301 32.0244L22.1203 24.9047C21.9236 24.7076 21.7452 24.4932 21.587 24.264L20.254 22.484C18.0483 24.2478 15.3092 25.2081 12.4865 25.2073C6.67005 25.2275 1.61573 21.2096 0.315901 15.5323C-0.983931 9.85496 1.81762 4.03341 7.06196 1.51417C12.3063 -1.00507 18.5938 0.450348 22.202 5.01877C25.8103 9.58719 25.7763 16.0494 22.1203 20.5795L23.8977 21.8077C24.1753 21.9856 24.4317 22.1946 24.662 22.4306ZM3.59915 12.7478C3.59915 17.6629 7.57809 21.6474 12.4864 21.6474C14.8434 21.6474 17.1039 20.7098 18.7706 19.0408C20.4373 17.3718 21.3736 15.1081 21.3736 12.7478C21.3736 7.83271 17.3946 3.84822 12.4864 3.84822C7.57809 3.84822 3.59915 7.83271 3.59915 12.7478Z" fill="white"/>
</svg>
